<svg width="24" height="24" viewBox="0 0 24 24" fill="none" xmlns="http://www.w3.org/2000/svg">
<path d="M19.392 2.63748C14.4817 1.78751 9.47033 1.78751 4.56 2.63748C1.752 3.24998 0 5.13748 0 7.59998V16.35C0 18.85 1.752 20.7125 4.608 21.35C7.05061 21.7784 9.52302 21.9958 12 22C14.4846 21.9994 16.9649 21.7862 19.416 21.3625C22.2 20.8125 24 18.8625 24 16.3625V7.61248C24 5.12498 22.2 3.17498 19.392 2.63748ZM15.912 12.5625L9.912 16.3125C9.81814 16.3721 9.70988 16.4024 9.6 16.4C9.49582 16.3991 9.39321 16.3735 9.3 16.325C9.20565 16.2653 9.12817 16.1807 9.07546 16.0797C9.02276 15.9787 8.99672 15.8649 9 15.75V8.24998C9.0009 8.13928 9.02893 8.03066 9.08144 7.9344C9.13394 7.83815 9.20917 7.75746 9.3 7.69998C9.39412 7.64746 9.49923 7.61998 9.606 7.61998C9.71277 7.61998 9.81789 7.64746 9.912 7.69998L15.912 11.45C15.9987 11.5076 16.0701 11.587 16.1196 11.681C16.169 11.7749 16.1949 11.8803 16.1949 11.9875C16.1949 12.0946 16.169 12.2 16.1196 12.294C16.0701 12.3879 15.9987 12.4674 15.912 12.525V12.5625Z" fill="#333333"/>
</svg>
